HIERARCHY
ROOT Hips
{
  OFFSET 0.00 0.00 0.00
  CHANNELS 6 Xposition Yposition Zposition Zrotation Xrotation Yrotation
  JOINT LeftUpLeg
  {
    OFFSET 3.43 0.00 0.00
    CHANNELS 3 Zrotation Xrotation Yrotation
    JOINT LeftLowLeg
    {
      OFFSET 0.00 -18.47 0.00
      CHANNELS 3 Zrotation Xrotation Yrotation
      JOINT LeftFoot
      {
        OFFSET 0.00 -17.95 0.00
        CHANNELS 3 Zrotation Xrotation Yrotation
        End Site
        {
          OFFSET 0.00 -3.12 0.00
        }
      }
    }
  }
  JOINT RightUpLeg
  {
    OFFSET -3.43 0.00 0.00
    CHANNELS 3 Zrotation Xrotation Yrotation
    JOINT RightLowLeg
    {
      OFFSET 0.00 -18.47 0.00
      CHANNELS 3 Zrotation Xrotation Yrotation
      JOINT RightFoot
      {
        OFFSET 0.00 -17.95 0.00
        CHANNELS 3 Zrotation Xrotation Yrotation
        End Site
        {
          OFFSET 0.00 -3.12 0.00
        }
      }
    }
  }
  JOINT Chest
  {
    OFFSET 0.00 4.57 0.00
    CHANNELS 3 Zrotation Xrotation Yrotation
    JOINT LeftCollar
    {
      OFFSET 1.06 15.33 1.76
      CHANNELS 3 Zrotation Xrotation Yrotation
      JOINT LeftUpArm
      {
        OFFSET 5.81 0.00 0.00
        CHANNELS 3 Zrotation Xrotation Yrotation
        JOINT LeftLowArm
        {
          OFFSET 0.00 -12.08 0.00
          CHANNELS 3 Zrotation Xrotation Yrotation
          JOINT LeftHand
          {
            OFFSET 0.00 -9.82 0.00
            CHANNELS 3 Zrotation Xrotation Yrotation
            End Site
            {
              OFFSET 0.00 -7.37 0.00
            }
          }
        }
      }
    }
    JOINT RightCollar
    {
      OFFSET -1.06 15.33 1.76
      CHANNELS 3 Zrotation Xrotation Yrotation
      JOINT RightUpArm
      {
        OFFSET -5.81 0.00 0.00
        CHANNELS 3 Zrotation Xrotation Yrotation
        JOINT RightLowArm
        {
          OFFSET 0.00 -12.08 0.00
          CHANNELS 3 Zrotation Xrotation Yrotation
          JOINT RightHand
          {
            OFFSET 0.00 -9.82 0.00
            CHANNELS 3 Zrotation Xrotation Yrotation
            End Site
            {
              OFFSET 0.00 -7.37 0.00
            }
          }
        }
      }
    }
    JOINT Neck
    {
      OFFSET 0.00 17.62 0.00
      CHANNELS 3 Zrotation Xrotation Yrotation
      JOINT Head
      {
        OFFSET 0.00 5.19 0.00
        CHANNELS 3 Zrotation Xrotation Yrotation
        End Site
        {
          OFFSET 0.00 4.14 0.00
        }
      }
    }
  }
}
MOTION
Frames:	32
Frame Time:	0.03
35.35 -17.33 46.63 1.36 -3.54 46.77 1.30 -31.08 1.49 0.17 39.06 -0.18 1.64 -5.82 -2.42 -3.34 9.34 -5.33 -0.20 50.46 0.23 -6.01 -6.06 17.61 3.14 8.14 5.51 -21.22 -3.89 10.03 55.14 25.24 -51.56 0.40 -59.63 0.60 19.25 5.76 52.69 18.69 -5.73 -14.75 -35.98 -0.59 16.10 -0.53 -67.35 -0.74 17.86 20.42 33.15 -4.94 -1.36 -5.29 -7.75 -3.62 -5.17 
36.79 -16.97 47.77 1.01 -4.22 46.24 2.56 -27.84 2.62 0.17 39.65 -0.18 2.17 -9.11 -4.79 -3.25 3.57 -4.84 -0.23 56.33 0.27 -8.00 -3.49 13.13 4.36 8.24 5.43 -21.32 -3.78 9.78 53.03 23.59 -50.24 0.40 -59.45 0.60 19.12 6.79 52.83 18.77 -5.69 -14.63 -36.79 2.39 14.66 -0.54 -67.99 -0.75 19.06 22.29 34.95 -5.64 -1.30 -5.06 -7.22 -2.95 -5.14 
38.14 -16.62 48.89 0.55 -5.14 45.62 4.34 -24.17 4.29 0.17 39.55 -0.18 2.70 -12.26 -7.86 -2.49 -1.82 -4.34 -0.25 58.74 0.29 -8.83 -3.11 7.89 5.78 8.81 5.09 -21.39 -3.70 9.59 51.11 21.28 -49.17 0.40 -59.66 0.60 18.80 7.63 52.11 18.95 -5.60 -14.37 -37.74 5.29 13.37 -0.56 -68.79 -0.77 20.18 23.76 36.28 -6.17 -1.70 -4.76 -6.78 -2.59 -4.99 
39.40 -16.32 50.00 0.07 -5.96 45.08 5.99 -20.47 6.02 0.16 38.84 -0.18 3.10 -15.02 -10.59 -1.41 -6.70 -3.77 -0.24 57.87 0.28 -9.05 -4.33 3.04 7.00 9.59 4.48 -21.43 -3.65 9.48 49.66 18.35 -48.46 0.41 -60.22 0.61 18.32 7.83 50.16 19.14 -5.49 -14.07 -38.69 8.03 12.47 -0.58 -69.42 -0.79 21.02 24.76 37.01 -6.26 -2.40 -4.48 -6.61 -2.54 -4.73 
40.60 -16.08 51.11 -0.35 -6.47 44.84 7.01 -17.05 7.41 0.16 37.76 -0.18 3.13 -17.31 -11.77 -0.36 -10.76 -3.11 -0.22 54.07 0.26 -9.13 -5.87 0.17 7.80 10.25 3.58 -21.43 -3.65 9.48 48.87 14.98 -48.35 0.42 -60.98 0.62 17.99 6.71 46.54 19.28 -5.41 -13.84 -39.52 10.53 11.96 -0.58 -69.54 -0.80 21.51 25.28 37.06 -5.77 -3.03 -4.30 -6.71 -2.75 -4.39 
41.84 -15.95 52.26 -0.52 -6.67 44.84 7.30 -13.79 8.40 0.16 36.69 -0.17 2.57 -19.51 -11.08 0.13 -14.06 -2.47 -0.19 48.39 0.22 -9.54 -6.51 0.22 8.22 10.60 2.55 -21.37 -3.72 9.63 48.73 11.35 -49.07 0.43 -62.06 0.63 17.85 4.61 41.65 19.31 -5.40 -13.80 -40.24 13.01 11.45 -0.57 -69.08 -0.78 21.78 25.45 36.30 -4.97 -3.05 -4.17 -6.89 -3.21 -4.07 
43.15 -15.95 53.46 -0.37 -6.74 44.89 7.05 -10.51 9.21 0.16 35.83 -0.17 1.70 -21.88 -9.81 -0.02 -16.76 -2.09 -0.17 41.93 0.19 -10.22 -5.98 1.90 8.42 10.76 1.75 -21.30 -3.80 9.83 48.90 7.69 -50.14 0.46 -63.62 0.66 17.62 3.17 37.33 19.23 -5.44 -13.93 -40.93 15.71 10.59 -0.55 -68.42 -0.77 22.02 25.41 34.85 -4.17 -2.42 -4.03 -7.05 -3.77 -3.78 
44.51 -16.07 54.70 0.09 -6.78 44.88 6.58 -6.97 9.93 0.16 35.05 -0.17 0.79 -24.44 -9.06 -0.48 -19.07 -2.07 -0.16 35.20 0.17 -10.25 -4.50 3.45 8.51 10.92 1.34 -21.25 -3.86 9.96 49.01 4.10 -50.89 0.49 -65.63 0.70 17.32 3.14 34.78 19.06 -5.54 -14.19 -41.60 18.69 9.27 -0.54 -67.88 -0.75 22.54 25.34 32.76 -3.54 -1.52 -3.88 -7.16 -4.27 -3.52 
45.92 -16.30 55.99 0.75 -6.83 44.83 5.98 -2.99 10.51 0.15 34.18 -0.17 -0.04 -27.06 -9.09 -0.93 -21.07 -2.32 -0.15 28.22 0.15 -8.88 -2.38 4.08 8.53 11.18 1.31 -21.26 -3.85 9.93 48.90 0.57 -51.00 0.54 -67.79 0.75 17.05 3.89 33.69 18.83 -5.66 -14.54 -42.09 21.96 7.46 -0.53 -67.66 -0.75 23.53 25.50 29.86 -3.15 -0.65 -3.78 -7.16 -4.55 -3.38 
47.33 -16.62 57.31 1.49 -6.91 44.77 5.30 1.29 10.83 0.15 33.05 -0.16 -0.71 -29.51 -9.76 -1.17 -22.56 -2.66 -0.14 20.88 0.13 -6.23 -0.36 3.80 8.53 11.51 1.54 -21.34 -3.75 9.71 48.56 -2.76 -50.32 0.58 -69.65 0.80 16.94 4.28 33.37 18.54 -5.81 -14.96 -42.18 25.35 5.18 -0.54 -67.80 -0.75 24.89 26.11 26.31 -2.93 -0.04 -3.76 -7.13 -4.62 -3.34 
48.70 -17.01 58.66 2.19 -7.00 44.89 4.66 5.72 10.73 0.15 31.60 -0.16 -1.17 -31.69 -10.61 -1.33 -23.47 -2.87 -0.13 13.71 0.11 -2.98 0.22 3.65 8.56 11.87 1.71 -21.48 -3.60 9.35 48.20 -5.74 -49.01 0.62 -70.99 0.84 17.38 3.38 33.39 18.25 -5.95 -15.37 -41.90 28.74 2.75 -0.55 -68.26 -0.76 26.16 26.91 23.22 -2.94 0.09 -3.81 -6.95 -4.49 -3.46 
50.04 -17.43 60.04 2.84 -7.12 45.30 4.16 10.23 10.19 0.15 29.79 -0.15 -1.38 -33.50 -11.09 -1.63 -24.02 -2.93 -0.13 8.30 0.10 0.20 -0.75 4.43 8.63 12.23 1.51 -21.59 -3.45 9.01 47.94 -8.28 -47.47 0.65 -71.86 0.87 18.27 1.51 33.68 18.05 -6.04 -15.64 -41.65 32.07 0.64 -0.56 -68.71 -0.77 26.72 26.87 22.25 -3.27 -0.34 -3.90 -6.42 -4.16 -3.78 
51.36 -17.81 61.43 3.49 -7.32 45.98 3.88 15.04 9.40 0.14 27.12 -0.14 -1.42 -34.48 -11.18 -2.09 -24.44 -2.85 -0.13 5.94 0.09 2.51 -1.95 5.76 8.81 12.62 0.93 -21.65 -3.37 8.83 47.61 -10.39 -46.02 0.66 -72.21 0.88 18.92 -0.33 34.02 17.95 -6.08 -15.77 -41.12 35.08 -1.36 -0.56 -68.71 -0.77 26.18 25.74 23.90 -3.80 -1.22 -4.01 -5.59 -3.54 -4.20 
52.68 -18.06 62.81 4.10 -7.70 46.85 3.92 20.26 8.54 0.14 23.48 -0.13 -1.54 -34.24 -11.28 -2.47 -24.78 -2.63 -0.13 6.84 0.09 3.48 -2.35 7.13 9.17 13.03 0.10 -21.67 -3.35 8.78 46.97 -12.04 -44.85 0.65 -71.89 0.87 18.90 -1.65 34.09 17.92 -6.09 -15.81 -40.35 37.36 -3.53 -0.54 -68.07 -0.76 25.28 24.04 26.66 -4.26 -2.33 -4.13 -4.77 -2.62 -4.56 
54.00 -18.24 64.21 4.67 -8.26 47.76 4.37 25.60 7.75 0.14 19.59 -0.12 -1.98 -32.86 -11.72 -2.57 -25.38 -2.27 -0.13 11.18 0.10 3.12 -1.86 8.47 9.70 13.40 -0.82 -21.67 -3.34 8.77 46.14 -13.02 -43.97 0.64 -71.35 0.85 18.11 -2.11 33.74 17.96 -6.08 -15.76 -39.42 39.03 -5.92 -0.53 -67.43 -0.74 24.60 22.66 29.07 -4.26 -3.41 -4.22 -4.39 -1.48 -4.65 
55.33 -18.41 65.63 5.21 -8.92 48.61 5.25 30.34 7.20 0.13 17.06 -0.12 -2.81 -30.67 -12.70 -2.32 -26.16 -1.91 -0.13 17.91 0.12 1.94 -0.55 9.88 10.22 13.65 -1.63 -21.69 -3.32 8.72 45.45 -13.16 -43.40 0.63 -71.16 0.85 16.89 -1.54 33.19 18.07 -6.03 -15.61 -38.58 40.46 -8.17 -0.53 -67.57 -0.74 24.47 22.30 30.10 -3.49 -4.07 -4.25 -4.78 -0.42 -4.33 
56.65 -18.49 67.09 5.61 -9.61 49.09 6.38 33.27 7.00 0.13 17.80 -0.12 -3.26 -27.57 -13.54 -1.61 -26.10 -1.64 -0.14 23.79 0.13 0.51 1.29 11.38 10.76 13.71 -1.95 -21.73 -3.26 8.59 44.83 -12.49 -43.64 0.62 -70.83 0.84 15.97 -0.53 33.07 18.24 -5.95 -15.38 -38.22 41.37 -9.49 -0.54 -68.07 -0.76 24.68 22.69 29.59 -2.34 -3.92 -4.34 -5.71 0.14 -3.98 
57.94 -18.39 68.55 5.70 -10.33 49.03 7.62 33.29 7.02 0.14 23.22 -0.13 -2.01 -23.77 -13.00 -0.47 -24.82 -1.20 -0.14 27.25 0.14 -0.92 2.64 12.76 11.54 13.63 -1.50 -21.79 -3.17 8.38 44.04 -11.35 -44.85 0.59 -69.69 0.80 15.47 0.35 33.64 18.34 -5.90 -15.24 -38.39 41.26 -9.65 -0.55 -68.17 -0.76 24.78 23.35 27.37 -1.50 -3.11 -4.62 -6.63 0.14 -4.00 
59.18 -18.17 69.99 5.38 -11.03 48.63 9.03 30.25 7.09 0.15 32.81 -0.16 1.29 -19.65 -10.87 1.03 -22.90 -0.39 -0.15 29.08 0.15 -2.21 2.73 13.73 12.64 13.41 -0.44 -21.87 -3.06 8.13 43.26 -9.95 -46.55 0.55 -68.16 0.76 14.80 1.39 34.54 18.44 -5.86 -15.11 -38.79 40.18 -9.35 -0.55 -68.28 -0.76 24.67 24.62 23.40 -1.11 -2.07 -5.08 -7.32 -0.11 -4.40 
60.34 -17.89 71.38 4.67 -11.60 48.10 10.50 24.97 7.28 0.18 44.20 -0.20 5.66 -15.04 -7.98 2.67 -20.73 0.73 -0.15 29.86 0.15 -3.37 1.56 14.23 13.92 13.01 0.96 -21.94 -2.95 7.88 42.73 -8.33 -48.30 0.51 -66.68 0.72 13.48 2.71 35.26 18.45 -5.85 -15.09 -39.29 38.16 -8.75 -0.56 -68.55 -0.77 24.53 26.63 18.64 -1.02 -1.08 -5.67 -7.78 -0.36 -5.00 
61.45 -17.55 72.71 3.66 -11.95 47.60 11.92 18.22 7.71 0.23 55.30 -0.26 9.50 -10.48 -5.12 4.24 -18.33 1.84 -0.15 29.52 0.15 -4.49 -0.30 14.47 15.15 12.45 2.39 -21.98 -2.87 7.71 42.62 -6.48 -49.74 0.49 -65.43 0.70 11.24 4.01 35.18 18.36 -5.90 -15.21 -39.83 35.14 -7.81 -0.56 -68.55 -0.77 24.47 28.71 14.89 -0.99 -0.33 -6.25 -8.14 -0.47 -5.54 
62.52 -17.20 73.97 2.57 -12.02 47.31 13.17 10.68 8.39 0.29 64.22 -0.34 11.29 -7.36 -2.84 5.33 -15.82 2.37 -0.15 28.35 0.15 -5.58 -2.39 14.97 16.09 11.87 3.43 -21.98 -2.88 7.73 43.18 -4.21 -50.39 0.48 -64.95 0.69 8.33 4.95 33.81 18.17 -5.98 -15.48 -40.47 31.56 -6.07 -0.55 -68.40 -0.76 24.60 29.35 15.00 -0.78 -0.07 -6.66 -8.64 -0.30 -5.69 
63.61 -16.90 75.16 1.68 -11.87 47.26 14.12 2.90 9.24 0.38 70.32 -0.44 10.83 -6.24 -1.02 5.86 -13.33 2.27 -0.14 27.03 0.14 -6.42 -4.64 15.67 16.61 11.42 3.94 -21.91 -3.00 7.99 44.31 -1.53 -50.25 0.49 -65.38 0.69 5.79 5.61 31.96 17.93 -6.09 -15.80 -41.31 27.92 -3.63 -0.55 -68.50 -0.77 25.28 28.09 19.96 -0.35 -0.27 -6.82 -9.34 0.07 -5.37 
64.73 -16.67 76.31 1.06 -11.63 47.33 14.68 -4.45 10.09 0.45 73.44 -0.51 8.72 -6.41 0.79 6.06 -10.91 1.95 -0.14 25.93 0.14 -6.97 -6.93 15.97 16.81 11.17 4.12 -21.79 -3.18 8.40 45.57 1.33 -49.71 0.50 -66.20 0.71 4.49 6.14 30.87 17.70 -6.18 -16.09 -42.19 24.25 -1.21 -0.57 -69.01 -0.78 26.61 26.35 27.58 0.06 -0.63 -6.75 -10.01 0.41 -4.86 
65.88 -16.52 77.39 0.68 -11.39 47.43 14.88 -10.97 10.76 0.46 73.65 -0.52 5.79 -7.41 2.48 6.05 -8.52 1.56 -0.14 25.05 0.14 -7.40 -9.11 15.47 16.82 11.09 4.18 -21.64 -3.38 8.85 46.77 4.23 -49.03 0.52 -67.08 0.73 4.55 6.55 30.87 17.54 -6.25 -16.30 -42.82 20.49 0.71 -0.59 -69.92 -0.81 28.03 25.25 34.71 0.19 -0.90 -6.50 -10.38 0.58 -4.37 
67.05 -16.44 78.44 0.44 -11.20 47.46 14.86 -16.34 11.11 0.40 71.20 -0.45 2.99 -8.74 3.50 5.89 -6.11 1.05 -0.14 24.28 0.14 -7.95 -11.08 14.12 16.75 11.13 4.27 -21.50 -3.56 9.27 47.85 7.07 -48.46 0.54 -67.83 0.75 5.69 6.81 31.75 17.51 -6.26 -16.34 -41.30 17.17 2.01 -0.64 -71.51 -0.86 27.55 25.35 41.48 -0.08 -0.90 -6.07 -10.32 0.52 -4.01 
68.23 -16.45 79.47 0.24 -11.05 47.21 14.99 -20.68 11.33 0.33 66.94 -0.38 1.43 -9.68 3.19 5.45 -3.83 -0.05 -0.14 23.80 0.14 -8.79 -13.05 12.83 16.62 11.19 4.62 -21.40 -3.68 9.55 49.00 9.84 -48.31 0.55 -68.41 0.76 7.34 6.74 32.73 17.55 -6.25 -16.29 -39.78 13.92 3.26 -0.71 -73.28 -0.93 27.22 25.68 44.59 -0.99 -0.64 -5.52 -9.57 0.37 -3.95 
69.42 -16.54 80.50 0.04 -10.91 46.71 15.41 -24.62 11.99 0.27 62.13 -0.32 0.50 -9.87 2.75 4.78 -1.64 -1.89 -0.14 23.76 0.13 -9.57 -15.40 13.03 16.37 11.22 5.24 -21.35 -3.74 9.68 50.37 12.54 -48.67 0.56 -68.84 0.78 8.98 6.24 33.37 17.57 -6.24 -16.27 -38.57 10.88 4.47 -0.78 -74.95 -1.01 27.11 25.79 45.07 -2.11 -0.29 -4.91 -8.47 0.33 -4.01 
70.64 -16.71 81.57 -0.13 -10.91 46.09 15.96 -28.36 13.26 0.24 57.19 -0.28 -0.92 -9.48 3.67 4.15 0.83 -3.83 -0.14 23.76 0.13 -9.87 -18.13 14.87 16.07 11.26 5.96 -21.35 -3.75 9.70 51.86 15.16 -49.25 0.57 -69.10 0.78 10.30 5.60 34.04 17.61 -6.22 -16.22 -37.48 8.26 5.39 -0.86 -76.38 -1.09 26.73 25.76 44.52 -3.01 0.14 -4.38 -7.45 0.41 -4.04 
71.89 -16.93 82.69 -0.23 -11.19 45.42 16.61 -31.53 14.92 0.21 52.02 -0.24 -2.56 -8.96 5.70 3.81 3.93 -5.17 -0.14 23.31 0.13 -9.71 -20.81 17.42 15.84 11.39 6.69 -21.37 -3.73 9.65 53.31 17.66 -49.81 0.57 -69.23 0.79 11.18 5.27 35.20 17.66 -6.20 -16.15 -36.44 6.22 6.01 -0.95 -77.67 -1.18 25.85 25.77 43.40 -3.71 0.78 -4.04 -6.55 0.56 -4.17 
73.19 -17.18 83.84 -0.21 -11.88 44.83 17.45 -33.79 16.60 0.19 46.72 -0.21 -3.78 -8.69 6.90 3.98 8.00 -5.26 -0.14 21.93 0.13 -9.54 -23.02 19.20 15.82 11.73 7.36 -21.40 -3.68 9.55 54.58 19.97 -50.20 0.58 -69.38 0.79 11.53 5.75 37.22 17.73 -6.17 -16.06 -35.52 4.84 6.42 -1.06 -78.90 -1.29 24.42 25.90 41.68 -4.09 1.69 -3.94 -5.90 0.70 -4.38 
74.51 -17.44 84.96 -0.04 -12.95 44.45 18.55 -34.91 17.84 0.17 42.63 -0.20 -4.65 -9.24 5.11 4.57 12.73 -3.83 -0.14 19.72 0.12 -9.94 -24.34 18.80 16.03 12.30 7.95 -21.44 -3.64 9.46 55.57 21.70 -50.51 0.59 -69.69 0.80 11.22 7.55 40.34 17.80 -6.15 -15.97 -34.95 4.30 6.61 -1.16 -79.92 -1.39 22.62 25.82 39.42 -4.19 2.71 -4.09 -5.63 0.86 -4.62 
